<!DOCTYPE svg PUBLIC "-//W3C//DTD SVG 1.1//EN" "http://www.w3.org/Graphics/SVG/1.1/DTD/svg11.dtd">
<!-- Uploaded to: SVG Repo, www.svgrepo.com, Transformed by: SVG Repo Mixer Tools -->
<svg fill="#3b94ba" width="800px" height="800px" viewBox="0 0 35 35" data-name="Layer 2" id="a1601ee4-9861-40f7-9d22-1715f3ba9d62" xmlns="http://www.w3.org/2000/svg" stroke="#3b94ba">
<g id="SVGRepo_bgCarrier" stroke-width="0"/>
<g id="SVGRepo_tracerCarrier" stroke-linecap="round" stroke-linejoin="round"/>
<g id="SVGRepo_iconCarrier">
<path d="M28.272,27.7H6.729A4.2,4.2,0,0,1,2.537,23.5V5.782A4.2,4.2,0,0,1,6.729,1.59H28.272a4.2,4.2,0,0,1,4.191,4.192V23.5A4.2,4.2,0,0,1,28.272,27.7ZM6.729,4.09A1.694,1.694,0,0,0,5.037,5.782V23.5A1.694,1.694,0,0,0,6.729,25.2H28.272A1.694,1.694,0,0,0,29.963,23.5V5.782A1.694,1.694,0,0,0,28.272,4.09Z"/>
<path d="M33.5,33.41H1.5a1.25,1.25,0,1,1,0-2.5h32a1.25,1.25,0,1,1,0,2.5Z"/>
</g>
</svg>